<svg xmlns="http://www.w3.org/2000/svg" viewBox="0 0 512 512" width="512" height="512">
  <!-- Background -->
  <defs>
    <radialGradient id="spaceGradient" cx="50%" cy="50%" r="70%">
      <stop offset="0%" style="stop-color:#1a1a2e;stop-opacity:1" />
      <stop offset="50%" style="stop-color:#16213e;stop-opacity:1" />
      <stop offset="100%" style="stop-color:#0f0f23;stop-opacity:1" />
    </radialGradient>
    <radialGradient id="sunGradient" cx="50%" cy="50%" r="50%">
      <stop offset="0%" style="stop-color:#ffd700;stop-opacity:1" />
      <stop offset="70%" style="stop-color:#ffed4e;stop-opacity:1" />
      <stop offset="100%" style="stop-color:#ffb347;stop-opacity:1" />
    </radialGradient>
    <radialGradient id="planetGradient" cx="30%" cy="30%" r="70%">
      <stop offset="0%" style="stop-color:#4a90e2;stop-opacity:1" />
      <stop offset="100%" style="stop-color:#357abd;stop-opacity:1" />
    </radialGradient>
  </defs>
  
  <!-- Space background -->
  <circle cx="256" cy="256" r="256" fill="url(#spaceGradient)"/>
  
  <!-- Stars -->
  <circle cx="80" cy="100" r="2" fill="#ffffff" opacity="0.8"/>
  <circle cx="150" cy="80" r="1.5" fill="#87ceeb" opacity="0.7"/>
  <circle cx="200" cy="120" r="1" fill="#ffffff" opacity="0.6"/>
  <circle cx="350" cy="90" r="2" fill="#ffd700" opacity="0.8"/>
  <circle cx="420" cy="150" r="1.5" fill="#ffffff" opacity="0.7"/>
  <circle cx="480" cy="200" r="1" fill="#87ceeb" opacity="0.6"/>
  <circle cx="450" cy="380" r="2" fill="#ffffff" opacity="0.8"/>
  <circle cx="380" cy="450" r="1.5" fill="#ffd700" opacity="0.7"/>
  <circle cx="100" cy="400" r="1" fill="#ffffff" opacity="0.6"/>
  <circle cx="50" cy="350" r="1.5" fill="#87ceeb" opacity="0.7"/>
  
  <!-- Central sun -->
  <circle cx="256" cy="256" r="45" fill="url(#sunGradient)" stroke="#ffb347" stroke-width="2"/>
  
  <!-- Orbit rings -->
  <circle cx="256" cy="256" r="100" fill="none" stroke="rgba(255,255,255,0.3)" stroke-width="1.5" stroke-dasharray="5,5"/>
  <circle cx="256" cy="256" r="140" fill="none" stroke="rgba(255,255,255,0.2)" stroke-width="1" stroke-dasharray="3,3"/>
  <circle cx="256" cy="256" r="180" fill="none" stroke="rgba(255,255,255,0.2)" stroke-width="1" stroke-dasharray="3,3"/>
  
  <!-- Planets -->
  <circle cx="356" cy="256" r="12" fill="url(#planetGradient)" stroke="#2a5298" stroke-width="1"/>
  <circle cx="396" cy="256" r="8" fill="#ff6b6b" stroke="#ee5a52" stroke-width="1"/>
  <circle cx="176" cy="256" r="6" fill="#90ee90" stroke="#7fdd7f" stroke-width="1"/>
  
  <!-- Ancient astronomical symbol overlay -->
  <g opacity="0.7" transform="translate(256,256)">
    <!-- Simplified astrolabe design -->
    <circle r="35" fill="none" stroke="#ffd700" stroke-width="2"/>
    <line x1="-25" y1="0" x2="25" y2="0" stroke="#ffd700" stroke-width="1.5"/>
    <line x1="0" y1="-25" x2="0" y2="25" stroke="#ffd700" stroke-width="1.5"/>
    <line x1="-18" y1="-18" x2="18" y2="18" stroke="#ffd700" stroke-width="1"/>
    <line x1="-18" y1="18" x2="18" y2="-18" stroke="#ffd700" stroke-width="1"/>
  </g>
</svg>